<svg width="1257" height="570" viewBox="0 0 1257 570" fill="none" xmlns="http://www.w3.org/2000/svg">
<g filter="url(#filter0_f_383_555)">
<ellipse cx="174.595" cy="117.838" rx="174.595" ry="117.838" transform="matrix(-1 0 0 1 589.189 14.7812)" fill="#F9D7B5"/>
</g>
<g filter="url(#filter1_f_383_555)">
<path d="M497 133.5C497 242.024 633.436 330 801.739 330C970.041 330 1106.48 242.024 1106.48 133.5C1106.48 24.976 970.041 -63 801.739 -63C633.436 -63 497 24.976 497 133.5Z" fill="#C9D6FF"/>
</g>
<g filter="url(#filter2_f_383_555)">
<ellipse cx="255.5" cy="145" rx="255.5" ry="145" transform="matrix(-1 0 0 1 851 -5)" fill="#FCD6D6"/>
</g>
<defs>
<filter id="filter0_f_383_555" x="0" y="-225.219" width="829.189" height="715.676" filterUnits="userSpaceOnUse" color-interpolation-filters="sRGB">
<feFlood flood-opacity="0" result="BackgroundImageFix"/>
<feBlend mode="normal" in="SourceGraphic" in2="BackgroundImageFix" result="shape"/>
<feGaussianBlur stdDeviation="120" result="effect1_foregroundBlur_383_555"/>
</filter>
<filter id="filter1_f_383_555" x="257" y="-303" width="1089.48" height="873" filterUnits="userSpaceOnUse" color-interpolation-filters="sRGB">
<feFlood flood-opacity="0" result="BackgroundImageFix"/>
<feBlend mode="normal" in="SourceGraphic" in2="BackgroundImageFix" result="shape"/>
<feGaussianBlur stdDeviation="120" result="effect1_foregroundBlur_383_555"/>
</filter>
<filter id="filter2_f_383_555" x="100" y="-245" width="991" height="770" filterUnits="userSpaceOnUse" color-interpolation-filters="sRGB">
<feFlood flood-opacity="0" result="BackgroundImageFix"/>
<feBlend mode="normal" in="SourceGraphic" in2="BackgroundImageFix" result="shape"/>
<feGaussianBlur stdDeviation="120" result="effect1_foregroundBlur_383_555"/>
</filter>
</defs>
</svg>
